<svg width="14" height="14" viewBox="0 0 12 13" fill="none" xmlns="http://www.w3.org/2000/svg">
<path fill-rule="evenodd" clip-rule="evenodd" d="M2 0.862305C1.46957 0.862305 0.960859 1.07302 0.585786 1.44809C0.210714 1.82316 0 2.33187 0 2.8623V8.19564C0 8.72607 0.210714 9.23478 0.585786 9.60985C0.960859 9.98492 1.46957 10.1956 2 10.1956H2.66667V10.8623C2.66667 11.3927 2.87738 11.9014 3.25245 12.2765C3.62753 12.6516 4.13623 12.8623 4.66667 12.8623H10C10.5304 12.8623 11.0391 12.6516 11.4142 12.2765C11.7893 11.9014 12 11.3927 12 10.8623V5.52897C12 4.99854 11.7893 4.48983 11.4142 4.11476C11.0391 3.73969 10.5304 3.52897 10 3.52897H9.33333V2.8623C9.33333 2.33187 9.12262 1.82316 8.74755 1.44809C8.37247 1.07302 7.86377 0.862305 7.33333 0.862305H2ZM8 3.52897V2.8623C8 2.68549 7.92976 2.51592 7.80474 2.3909C7.67971 2.26588 7.51014 2.19564 7.33333 2.19564H2C1.82319 2.19564 1.65362 2.26588 1.5286 2.3909C1.40357 2.51592 1.33333 2.68549 1.33333 2.8623V8.19564C1.33333 8.37245 1.40357 8.54202 1.5286 8.66704C1.65362 8.79207 1.82319 8.8623 2 8.8623H2.66667V5.52897C2.66667 4.99854 2.87738 4.48983 3.25245 4.11476C3.62753 3.73969 4.13623 3.52897 4.66667 3.52897H8ZM4 9.52897L4 10.8623C4 11.0391 4.07024 11.2087 4.19526 11.3337C4.32029 11.4587 4.48986 11.529 4.66667 11.529H10C10.1768 11.529 10.3464 11.4587 10.4714 11.3337C10.5964 11.2087 10.6667 11.0391 10.6667 10.8623V5.52897C10.6667 5.35216 10.5964 5.18259 10.4714 5.05757C10.3464 4.93254 10.1768 4.8623 10 4.8623L8.66667 4.8623L4.66667 4.8623C4.48986 4.8623 4.32029 4.93254 4.19526 5.05757C4.07024 5.18259 4 5.35216 4 5.52897L4 9.52897Z" fill="black" fill-opacity="0.25"/>
</svg>
