<svg width="22" height="22" viewBox="0 0 22 22" fill="none" xmlns="http://www.w3.org/2000/svg">
<path d="M11 0.362305C5.20156 0.362305 0.5 5.06387 0.5 10.8623C0.5 16.6607 5.20156 21.3623 11 21.3623C16.7984 21.3623 21.5 16.6607 21.5 10.8623C21.5 5.06387 16.7984 0.362305 11 0.362305ZM11 19.5811C6.18594 19.5811 2.28125 15.6764 2.28125 10.8623C2.28125 6.04824 6.18594 2.14355 11 2.14355C15.8141 2.14355 19.7188 6.04824 19.7188 10.8623C19.7188 15.6764 15.8141 19.5811 11 19.5811Z" fill="#FAAD14"/>
<path d="M9.875 14.9873C9.875 15.2857 9.99353 15.5718 10.2045 15.7828C10.4155 15.9938 10.7016 16.1123 11 16.1123C11.2984 16.1123 11.5845 15.9938 11.7955 15.7828C12.0065 15.5718 12.125 15.2857 12.125 14.9873C12.125 14.6889 12.0065 14.4028 11.7955 14.1918C11.5845 13.9808 11.2984 13.8623 11 13.8623C10.7016 13.8623 10.4155 13.9808 10.2045 14.1918C9.99353 14.4028 9.875 14.6889 9.875 14.9873ZM10.4375 12.3623H11.5625C11.6656 12.3623 11.75 12.2779 11.75 12.1748V5.7998C11.75 5.69668 11.6656 5.6123 11.5625 5.6123H10.4375C10.3344 5.6123 10.25 5.69668 10.25 5.7998V12.1748C10.25 12.2779 10.3344 12.3623 10.4375 12.3623Z" fill="#FAAD14"/>
</svg>
