<svg width="24" height="25" viewBox="0 0 24 25" fill="none" xmlns="http://www.w3.org/2000/svg">
<path d="M12 2.3623C6.20156 2.3623 1.5 7.06387 1.5 12.8623C1.5 18.6607 6.20156 23.3623 12 23.3623C17.7984 23.3623 22.5 18.6607 22.5 12.8623C22.5 7.06387 17.7984 2.3623 12 2.3623ZM12 21.5811C7.18594 21.5811 3.28125 17.6764 3.28125 12.8623C3.28125 8.04824 7.18594 4.14355 12 4.14355C16.8141 4.14355 20.7188 8.04824 20.7188 12.8623C20.7188 17.6764 16.8141 21.5811 12 21.5811Z" fill="black" fill-opacity="0.25"/>
<path d="M10.875 16.9873C10.875 17.2857 10.9935 17.5718 11.2045 17.7828C11.4155 17.9938 11.7016 18.1123 12 18.1123C12.2984 18.1123 12.5845 17.9938 12.7955 17.7828C13.0065 17.5718 13.125 17.2857 13.125 16.9873C13.125 16.6889 13.0065 16.4028 12.7955 16.1918C12.5845 15.9808 12.2984 15.8623 12 15.8623C11.7016 15.8623 11.4155 15.9808 11.2045 16.1918C10.9935 16.4028 10.875 16.6889 10.875 16.9873ZM11.4375 14.3623H12.5625C12.6656 14.3623 12.75 14.2779 12.75 14.1748V7.7998C12.75 7.69668 12.6656 7.6123 12.5625 7.6123H11.4375C11.3344 7.6123 11.25 7.69668 11.25 7.7998V14.1748C11.25 14.2779 11.3344 14.3623 11.4375 14.3623Z" fill="black" fill-opacity="0.25"/>
</svg>
