<svg width="16" height="16" viewBox="0 0 14 14" fill="none" xmlns="http://www.w3.org/2000/svg">
<path d="M9.66406 1V3.66667M4.33073 1V3.66667M1.66406 6.33333H12.3307M1.66406 3.66667C1.66406 3.31304 1.80454 2.97391 2.05459 2.72386C2.30464 2.47381 2.64377 2.33333 2.9974 2.33333H10.9974C11.351 2.33333 11.6902 2.47381 11.9402 2.72386C12.1903 2.97391 12.3307 3.31304 12.3307 3.66667V11.6667C12.3307 12.0203 12.1903 12.3594 11.9402 12.6095C11.6902 12.8595 11.351 13 10.9974 13H2.9974C2.64377 13 2.30464 12.8595 2.05459 12.6095C1.80454 12.3594 1.66406 12.0203 1.66406 11.6667V3.66667ZM4.33073 9H5.66406V10.3333H4.33073V9Z" stroke="#5B6B83" stroke-width="1.5" stroke-linecap="round" stroke-linejoin="round"/>
</svg>
