<svg width="14" height="14" viewBox="0 0 14 14" fill="none" xmlns="http://www.w3.org/2000/svg">
<path d="M1.66406 3.52897H12.3307M2.33073 3.52897L2.9974 11.529C2.9974 11.8826 3.13787 12.2217 3.38792 12.4718C3.63797 12.7218 3.97711 12.8623 4.33073 12.8623H9.66406C10.0177 12.8623 10.3568 12.7218 10.6069 12.4718C10.8569 12.2217 10.9974 11.8826 10.9974 11.529L11.6641 3.52897M4.9974 3.52897V1.52897C4.9974 1.35216 5.06763 1.18259 5.19266 1.05757C5.31768 0.932543 5.48725 0.862305 5.66406 0.862305H8.33073C8.50754 0.862305 8.67711 0.932543 8.80213 1.05757C8.92716 1.18259 8.9974 1.35216 8.9974 1.52897V3.52897M5.66406 6.8623L8.33073 9.52897M8.33073 6.8623L5.66406 9.52897" stroke="black" stroke-opacity="0.25" stroke-width="1.5" stroke-linecap="round" stroke-linejoin="round"/>
</svg>
