<svg width="16" height="16" viewBox="0 0 14 14" fill="none" xmlns="http://www.w3.org/2000/svg">
<path d="M4.99749 9.00004L8.99749 5.00004M6.33082 3.00004L6.63949 2.64271C7.26469 2.01759 8.11262 1.66644 8.99673 1.6665C9.88083 1.66657 10.7287 2.01784 11.3538 2.64304C11.9789 3.26824 12.3301 4.11617 12.33 5.00028C12.33 5.88439 11.9787 6.73226 11.3535 7.35737L10.9975 7.66671M7.66416 11L7.39949 11.356C6.76699 11.9815 5.91335 12.3323 5.02382 12.3323C4.1343 12.3323 3.28066 11.9815 2.64816 11.356C2.33639 11.0478 2.08889 10.6807 1.91996 10.2761C1.75104 9.87155 1.66406 9.43747 1.66406 8.99904C1.66406 8.56061 1.75104 8.12653 1.91996 7.72195C2.08889 7.31736 2.33639 6.95031 2.64816 6.64204L2.99749 6.33337" stroke="#5B6B83" stroke-width="1.5" stroke-linecap="round" stroke-linejoin="round"/>
</svg>
